<mxfile host="app.diagrams.net" modified="2023-09-20T06:56:11.044Z" agent="Mozilla/5.0 (Macintosh; Intel Mac OS X 10_15_7) AppleWebKit/537.36 (KHTML, like Gecko) Chrome/116.0.0.0 Safari/537.36" etag="m70zyibBbbx0UpfHix7k" version="21.7.2" type="github">
  <diagram name="第 1 页" id="s7CzReBOw8vYEQgI-hQS">
    <mxGraphModel dx="1184" dy="789" grid="1" gridSize="10" guides="1" tooltips="1" connect="1" arrows="1" fold="1" page="1" pageScale="1" pageWidth="827" pageHeight="1169" math="0" shadow="0">
      <root>
        <mxCell id="0" />
        <mxCell id="1" parent="0" />
        <mxCell id="vCCV_5shbb-xV2NnZklQ-1" value="" style="endArrow=classic;html=1;rounded=0;" edge="1" parent="1">
          <mxGeometry width="50" height="50" relative="1" as="geometry">
            <mxPoint x="80" y="300" as="sourcePoint" />
            <mxPoint x="680" y="300" as="targetPoint" />
          </mxGeometry>
        </mxCell>
        <mxCell id="vCCV_5shbb-xV2NnZklQ-4" value="&lt;span style=&quot;color: rgb(0, 0, 0); font-family: Helvetica; font-size: 12px; font-style: normal; font-variant-ligatures: normal; font-variant-caps: normal; font-weight: 400; letter-spacing: normal; orphans: 2; text-align: center; text-indent: 0px; text-transform: none; widows: 2; word-spacing: 0px; -webkit-text-stroke-width: 0px; background-color: rgb(251, 251, 251); text-decoration-thickness: initial; text-decoration-style: initial; text-decoration-color: initial; float: none; display: inline !important;&quot;&gt;9.1&lt;/span&gt;" style="text;whiteSpace=wrap;html=1;" vertex="1" parent="1">
          <mxGeometry x="90" y="300" width="50" height="40" as="geometry" />
        </mxCell>
        <mxCell id="vCCV_5shbb-xV2NnZklQ-7" value="" style="shape=waypoint;sketch=0;fillStyle=solid;size=6;pointerEvents=1;points=[];fillColor=none;resizable=0;rotatable=0;perimeter=centerPerimeter;snapToPoint=1;" vertex="1" parent="1">
          <mxGeometry x="90" y="290" width="20" height="20" as="geometry" />
        </mxCell>
        <mxCell id="vCCV_5shbb-xV2NnZklQ-8" value="" style="shape=waypoint;sketch=0;fillStyle=solid;size=6;pointerEvents=1;points=[];fillColor=none;resizable=0;rotatable=0;perimeter=centerPerimeter;snapToPoint=1;" vertex="1" parent="1">
          <mxGeometry x="200" y="291" width="20" height="20" as="geometry" />
        </mxCell>
        <mxCell id="vCCV_5shbb-xV2NnZklQ-12" value="9.20" style="text;html=1;strokeColor=none;fillColor=none;align=center;verticalAlign=middle;whiteSpace=wrap;rounded=0;" vertex="1" parent="1">
          <mxGeometry x="180" y="300" width="60" height="30" as="geometry" />
        </mxCell>
        <mxCell id="vCCV_5shbb-xV2NnZklQ-13" value="Gesture-Speech Dataset&lt;br&gt;Trinity Speech-Gesture I/II&lt;br&gt;Talking With Hands&lt;br&gt;Talking With Hands GENEA Extension等已经下载好的具备bvh和wav的处理完成" style="text;html=1;strokeColor=none;fillColor=none;align=center;verticalAlign=middle;whiteSpace=wrap;rounded=0;" vertex="1" parent="1">
          <mxGeometry x="320" y="220" width="250" height="70" as="geometry" />
        </mxCell>
        <mxCell id="vCCV_5shbb-xV2NnZklQ-14" value="BEAT中文数据集处理基本完成" style="text;html=1;strokeColor=none;fillColor=none;align=center;verticalAlign=middle;whiteSpace=wrap;rounded=0;" vertex="1" parent="1">
          <mxGeometry x="160" y="270" width="100" height="30" as="geometry" />
        </mxCell>
        <mxCell id="vCCV_5shbb-xV2NnZklQ-15" value="数据集下载" style="text;html=1;strokeColor=none;fillColor=none;align=center;verticalAlign=middle;whiteSpace=wrap;rounded=0;" vertex="1" parent="1">
          <mxGeometry x="50" y="270" width="100" height="30" as="geometry" />
        </mxCell>
        <mxCell id="vCCV_5shbb-xV2NnZklQ-17" value="" style="shape=curlyBracket;whiteSpace=wrap;html=1;rounded=1;labelPosition=left;verticalLabelPosition=middle;align=right;verticalAlign=middle;" vertex="1" parent="1">
          <mxGeometry x="160" y="100" width="20" height="160" as="geometry" />
        </mxCell>
        <mxCell id="vCCV_5shbb-xV2NnZklQ-18" value="动画首帧ROOT zero-shot" style="text;html=1;strokeColor=none;fillColor=none;align=center;verticalAlign=middle;whiteSpace=wrap;rounded=0;" vertex="1" parent="1">
          <mxGeometry x="170" y="100" width="150" height="30" as="geometry" />
        </mxCell>
        <mxCell id="vCCV_5shbb-xV2NnZklQ-19" value="动画朝向归一化" style="text;html=1;strokeColor=none;fillColor=none;align=left;verticalAlign=middle;whiteSpace=wrap;rounded=0;" vertex="1" parent="1">
          <mxGeometry x="180" y="145" width="150" height="30" as="geometry" />
        </mxCell>
        <mxCell id="vCCV_5shbb-xV2NnZklQ-20" value="textgrid补齐，语言识别" style="text;html=1;strokeColor=none;fillColor=none;align=left;verticalAlign=middle;whiteSpace=wrap;rounded=0;" vertex="1" parent="1">
          <mxGeometry x="180" y="190" width="150" height="30" as="geometry" />
        </mxCell>
        <mxCell id="vCCV_5shbb-xV2NnZklQ-21" value="率" style="text;html=1;strokeColor=none;fillColor=none;align=left;verticalAlign=middle;whiteSpace=wrap;rounded=0;" vertex="1" parent="1">
          <mxGeometry x="180" y="230" width="150" height="30" as="geometry" />
        </mxCell>
        <mxCell id="vCCV_5shbb-xV2NnZklQ-22" value="" style="shape=waypoint;sketch=0;fillStyle=solid;size=6;pointerEvents=1;points=[];fillColor=none;resizable=0;rotatable=0;perimeter=centerPerimeter;snapToPoint=1;" vertex="1" parent="1">
          <mxGeometry x="425" y="291" width="20" height="20" as="geometry" />
        </mxCell>
        <mxCell id="vCCV_5shbb-xV2NnZklQ-23" value="10.15" style="text;html=1;strokeColor=none;fillColor=none;align=center;verticalAlign=middle;whiteSpace=wrap;rounded=0;" vertex="1" parent="1">
          <mxGeometry x="405" y="300" width="60" height="30" as="geometry" />
        </mxCell>
        <mxCell id="vCCV_5shbb-xV2NnZklQ-26" value="" style="shape=curlyBracket;whiteSpace=wrap;html=1;rounded=1;labelPosition=left;verticalLabelPosition=middle;align=right;verticalAlign=middle;" vertex="1" parent="1">
          <mxGeometry x="350" y="55" width="20" height="160" as="geometry" />
        </mxCell>
        <mxCell id="vCCV_5shbb-xV2NnZklQ-27" value="动画首帧ROOT zero-shot" style="text;html=1;strokeColor=none;fillColor=none;align=center;verticalAlign=middle;whiteSpace=wrap;rounded=0;" vertex="1" parent="1">
          <mxGeometry x="360" y="110" width="150" height="30" as="geometry" />
        </mxCell>
        <mxCell id="vCCV_5shbb-xV2NnZklQ-28" value="动画朝向归一化" style="text;html=1;strokeColor=none;fillColor=none;align=left;verticalAlign=middle;whiteSpace=wrap;rounded=0;" vertex="1" parent="1">
          <mxGeometry x="370" y="140" width="150" height="30" as="geometry" />
        </mxCell>
        <mxCell id="vCCV_5shbb-xV2NnZklQ-29" value="textgrid补齐，语言识别" style="text;html=1;strokeColor=none;fillColor=none;align=left;verticalAlign=middle;whiteSpace=wrap;rounded=0;" vertex="1" parent="1">
          <mxGeometry x="370" y="185" width="150" height="30" as="geometry" />
        </mxCell>
        <mxCell id="vCCV_5shbb-xV2NnZklQ-30" value="COS数据关联与数据库重构" style="text;html=1;strokeColor=none;fillColor=none;align=center;verticalAlign=middle;whiteSpace=wrap;rounded=0;" vertex="1" parent="1">
          <mxGeometry x="360" y="65" width="150" height="30" as="geometry" />
        </mxCell>
      </root>
    </mxGraphModel>
  </diagram>
</mxfile>
